# xmcd CD database file
#
# Track frame offsets:
#	150
#	12895
#	25637
#	43665
#	61698
#	90063
#	118405
#	148483
#	178576
#	209948
#
# Disc length: 3059 seconds
#
# Revision: 0
# Processed by: cddbd v1.5.1PL2 Copyright (c) Steve Scherf et al.
# Submitted via: CDex 1.51
#
DISCID=890bf10a
DTITLE=たまソフト - LOST CHILD メッセサンオー特典 Sound Track&Drama CD
DYEAR=2006
DGENRE=Game
TTITLE0=魂の慟哭 remix short ver.
TTITLE1=魂の慟哭 remix short ver. -inst-
TTITLE2=月の眼の少年 remix version
TTITLE3=月の眼の少年 remix version -inst-
TTITLE4=この世の果て remix version
TTITLE5=この世の果て remix version -inst-
TTITLE6=百の想い remix version
TTITLE7=百の想い remix version -inst-
TTITLE8=埼玉最終兵器 - 修羅場BURN!2006 version
TTITLE9=DATA
EXTD=YEAR: 2006
EXTT0=
EXTT1=
EXTT2=
EXTT3=
EXTT4=
EXTT5=
EXTT6=
EXTT7=
EXTT8=
EXTT9=
PLAYORDER=
